<svg width="24" height="24" viewBox="0 0 24 24" fill="none" xmlns="http://www.w3.org/2000/svg">
<circle cx="12" cy="12" r="12" fill="#009933" fill-opacity="0.1"/>
<g clip-path="url(#clip0_823_684)">
<path d="M10.75 11.6875H8.875C8.62636 11.6875 8.3879 11.5887 8.21209 11.4129C8.03627 11.2371 7.9375 10.9986 7.9375 10.75V8.875C7.9375 8.62636 8.03627 8.3879 8.21209 8.21209C8.3879 8.03627 8.62636 7.9375 8.875 7.9375H10.75C10.9986 7.9375 11.2371 8.03627 11.4129 8.21209C11.5887 8.3879 11.6875 8.62636 11.6875 8.875V10.75C11.6875 10.9986 11.5887 11.2371 11.4129 11.4129C11.2371 11.5887 10.9986 11.6875 10.75 11.6875ZM8.875 8.5625C8.79212 8.5625 8.71263 8.59542 8.65403 8.65403C8.59542 8.71263 8.5625 8.79212 8.5625 8.875V10.75C8.5625 10.8329 8.59542 10.9124 8.65403 10.971C8.71263 11.0296 8.79212 11.0625 8.875 11.0625H10.75C10.8329 11.0625 10.9124 11.0296 10.971 10.971C11.0296 10.9124 11.0625 10.8329 11.0625 10.75V8.875C11.0625 8.79212 11.0296 8.71263 10.971 8.65403C10.9124 8.59542 10.8329 8.5625 10.75 8.5625H8.875Z" fill="#009933"/>
<path d="M15.125 11.6875H13.25C13.0014 11.6875 12.7629 11.5887 12.5871 11.4129C12.4113 11.2371 12.3125 10.9986 12.3125 10.75V8.875C12.3125 8.62636 12.4113 8.3879 12.5871 8.21209C12.7629 8.03627 13.0014 7.9375 13.25 7.9375H15.125C15.3736 7.9375 15.6121 8.03627 15.7879 8.21209C15.9637 8.3879 16.0625 8.62636 16.0625 8.875V10.75C16.0625 10.9986 15.9637 11.2371 15.7879 11.4129C15.6121 11.5887 15.3736 11.6875 15.125 11.6875ZM13.25 8.5625C13.1671 8.5625 13.0876 8.59542 13.029 8.65403C12.9704 8.71263 12.9375 8.79212 12.9375 8.875V10.75C12.9375 10.8329 12.9704 10.9124 13.029 10.971C13.0876 11.0296 13.1671 11.0625 13.25 11.0625H15.125C15.2079 11.0625 15.2874 11.0296 15.346 10.971C15.4046 10.9124 15.4375 10.8329 15.4375 10.75V8.875C15.4375 8.79212 15.4046 8.71263 15.346 8.65403C15.2874 8.59542 15.2079 8.5625 15.125 8.5625H13.25Z" fill="#009933"/>
<path d="M10.75 16.0625H8.875C8.62636 16.0625 8.3879 15.9637 8.21209 15.7879C8.03627 15.6121 7.9375 15.3736 7.9375 15.125V13.25C7.9375 13.0014 8.03627 12.7629 8.21209 12.5871C8.3879 12.4113 8.62636 12.3125 8.875 12.3125H10.75C10.9986 12.3125 11.2371 12.4113 11.4129 12.5871C11.5887 12.7629 11.6875 13.0014 11.6875 13.25V15.125C11.6875 15.3736 11.5887 15.6121 11.4129 15.7879C11.2371 15.9637 10.9986 16.0625 10.75 16.0625ZM8.875 12.9375C8.79212 12.9375 8.71263 12.9704 8.65403 13.029C8.59542 13.0876 8.5625 13.1671 8.5625 13.25V15.125C8.5625 15.2079 8.59542 15.2874 8.65403 15.346C8.71263 15.4046 8.79212 15.4375 8.875 15.4375H10.75C10.8329 15.4375 10.9124 15.4046 10.971 15.346C11.0296 15.2874 11.0625 15.2079 11.0625 15.125V13.25C11.0625 13.1671 11.0296 13.0876 10.971 13.029C10.9124 12.9704 10.8329 12.9375 10.75 12.9375H8.875Z" fill="#009933"/>
<path d="M14.1875 16.0625C13.8167 16.0625 13.4541 15.9525 13.1458 15.7465C12.8375 15.5405 12.5971 15.2476 12.4552 14.905C12.3133 14.5624 12.2762 14.1854 12.3485 13.8217C12.4209 13.458 12.5995 13.1239 12.8617 12.8617C13.1239 12.5995 13.458 12.4209 13.8217 12.3485C14.1854 12.2762 14.5624 12.3133 14.905 12.4552C15.2476 12.5971 15.5405 12.8375 15.7465 13.1458C15.9525 13.4541 16.0625 13.8167 16.0625 14.1875C16.062 14.6846 15.8643 15.1613 15.5128 15.5128C15.1613 15.8643 14.6846 16.062 14.1875 16.0625ZM14.1875 12.9375C13.9403 12.9375 13.6986 13.0108 13.493 13.1482C13.2875 13.2855 13.1273 13.4807 13.0327 13.7091C12.938 13.9376 12.9133 14.1889 12.9615 14.4314C13.0098 14.6738 13.1288 14.8966 13.3036 15.0714C13.4784 15.2462 13.7012 15.3653 13.9436 15.4135C14.1861 15.4617 14.4374 15.437 14.6659 15.3424C14.8943 15.2477 15.0895 15.0875 15.2268 14.882C15.3642 14.6764 15.4375 14.4347 15.4375 14.1875C15.4375 13.856 15.3058 13.538 15.0714 13.3036C14.837 13.0692 14.519 12.9375 14.1875 12.9375Z" fill="#009933"/>
</g>
<defs>
<clipPath id="clip0_823_684">
<rect width="10" height="10" fill="white" transform="translate(7 7)"/>
</clipPath>
</defs>
</svg>