<svg width="14" height="14" viewBox="0 0 14 14" fill="none" xmlns="http://www.w3.org/2000/svg">
<g id="line-spacing 1">
<path id="Vector" fill-rule="evenodd" clip-rule="evenodd" d="M1.7513 12.8335C1.42914 12.8335 1.16797 12.5723 1.16797 12.2502L1.16797 1.75016C1.16797 1.42799 1.42914 1.16683 1.7513 1.16683C2.07347 1.16683 2.33464 1.42799 2.33464 1.75016L2.33464 12.2502C2.33464 12.5723 2.07347 12.8335 1.7513 12.8335ZM3.29506 7.6189C2.95335 7.27719 2.95335 6.72314 3.29506 6.38142L4.83882 4.83769C5.06663 4.6099 5.43597 4.6099 5.66378 4.83769C5.89157 5.06548 5.89157 5.43485 5.66378 5.66264L4.90959 6.41683L7.0013 6.41683C7.32348 6.41683 7.58464 6.67799 7.58464 7.00016C7.58464 7.32234 7.32348 7.5835 7.0013 7.5835L4.90959 7.5835L5.66378 8.33768C5.89157 8.56549 5.89157 8.93483 5.66378 9.16264C5.43597 9.39045 5.06663 9.39045 4.83882 9.16264L3.29506 7.6189ZM9.33464 12.8335C9.01246 12.8335 8.7513 12.5723 8.7513 12.2502L8.7513 1.75016C8.7513 1.42799 9.01246 1.16683 9.33464 1.16683C9.65681 1.16683 9.91797 1.42799 9.91797 1.75016L9.91797 12.2502C9.91797 12.5723 9.65681 12.8335 9.33464 12.8335ZM12.2513 12.8335C11.9291 12.8335 11.668 12.5723 11.668 12.2502L11.668 1.75016C11.668 1.42799 11.9291 1.16683 12.2513 1.16683C12.5735 1.16683 12.8346 1.42799 12.8346 1.75016L12.8346 12.2502C12.8346 12.5723 12.5735 12.8335 12.2513 12.8335Z" fill="#465BEC"/>
</g>
</svg>
