<svg xmlns="http://www.w3.org/2000/svg" width="197" height="186" viewBox="0 0 197 186" fill="none">
  <path d="M142.187 137.325L45.2939 162.364C42.0072 163.209 38.5205 162.712 35.5988 160.981C32.6771 159.249 30.559 156.426 29.7091 153.129L0.405975 38.9346C-0.436442 35.6363 0.059273 32.1373 1.78437 29.2053C3.50947 26.2733 6.32307 24.1477 9.60789 23.2949L99.7515 1.52588e-05L122.824 10.3652L151.389 121.685C152.232 124.983 151.736 128.482 150.011 131.414C148.286 134.346 145.472 136.472 142.187 137.325Z" fill="#F2F2F2"/>
  <path d="M10.5265 26.8752C8.18727 27.4825 6.18365 28.9962 4.95516 31.0842C3.72668 33.1721 3.37367 35.6638 3.97358 38.0126L33.2767 152.207C33.8819 154.555 35.3903 156.566 37.4709 157.798C39.5515 159.031 42.0344 159.385 44.375 158.783L141.269 133.744C143.608 133.137 145.611 131.623 146.84 129.535C148.068 127.447 148.421 124.956 147.821 122.607L119.699 13.0121L99.4221 3.90286L10.5265 26.8752Z" fill="white"/>
  <path d="M122.578 10.9543L107.582 14.8295C106.487 15.1124 105.325 14.9473 104.352 14.3705C103.379 13.7937 102.673 12.8525 102.391 11.7539L99.5394 0.639355C99.5269 0.590696 99.5284 0.539489 99.5435 0.491609C99.5587 0.443729 99.5871 0.401114 99.6253 0.36865C99.6635 0.336185 99.7101 0.315186 99.7596 0.308061C99.8092 0.300935 99.8597 0.307971 99.9055 0.328364L122.619 10.4511C122.67 10.4736 122.712 10.5114 122.74 10.5591C122.769 10.6069 122.781 10.6623 122.777 10.7176C122.772 10.7729 122.75 10.8254 122.715 10.8678C122.679 10.9102 122.631 10.9405 122.578 10.9543Z" fill="#F2F2F2"/>
  <path d="M114.689 108.474L70.5742 119.874C70.3032 119.944 70.0211 119.96 69.744 119.921C69.4669 119.881 69.2002 119.788 68.9592 119.645C68.7182 119.502 68.5076 119.313 68.3394 119.088C68.1712 118.864 68.0487 118.608 67.9789 118.336C67.9092 118.064 67.8934 117.781 67.9327 117.503C67.9719 117.225 68.0653 116.958 68.2076 116.716C68.3499 116.474 68.5383 116.263 68.762 116.094C68.9857 115.925 69.2403 115.802 69.5113 115.732L113.626 104.332C113.897 104.262 114.179 104.246 114.456 104.286C114.733 104.325 115 104.419 115.241 104.562C115.482 104.704 115.692 104.893 115.86 105.118C116.029 105.342 116.151 105.598 116.221 105.87C116.291 106.142 116.306 106.425 116.267 106.703C116.228 106.981 116.134 107.249 115.992 107.49C115.85 107.732 115.662 107.944 115.438 108.112C115.214 108.281 114.96 108.404 114.689 108.474Z" fill="#CCCCCC"/>
  <path d="M124.996 113.264L72.3679 126.864C71.8206 127.006 71.2396 126.923 70.7529 126.635C70.2662 126.346 69.9136 125.876 69.7727 125.326C69.6317 124.777 69.714 124.194 70.0013 123.706C70.2887 123.217 70.7577 122.863 71.305 122.722L123.933 109.122C124.48 108.981 125.06 109.064 125.547 109.352C126.033 109.641 126.385 110.111 126.526 110.66C126.667 111.209 126.585 111.792 126.298 112.28C126.011 112.768 125.542 113.122 124.996 113.264Z" fill="#CCCCCC"/>
  <path d="M52.5693 133.604C56.7294 133.604 60.1018 130.22 60.1018 126.045C60.1018 121.871 56.7294 118.486 52.5693 118.486C48.4093 118.486 45.0369 121.871 45.0369 126.045C45.0369 130.22 48.4093 133.604 52.5693 133.604Z" fill="#E6E6E6"/>
  <path d="M109.998 88.6918L51.4098 103.826C49.7166 104.262 47.9204 104.005 46.4154 103.113C44.9103 102.222 43.8193 100.767 43.3817 99.0687L31.1038 51.2037C30.6699 49.5045 30.9255 47.7021 31.8143 46.1917C32.7031 44.6814 34.1526 43.5865 35.8449 43.1473L94.433 28.0126C96.1262 27.5773 97.9224 27.8337 99.4274 28.7256C100.932 29.6176 102.024 31.0722 102.461 32.7704L114.739 80.6354C115.173 82.3346 114.917 84.137 114.029 85.6474C113.14 87.1577 111.69 88.2526 109.998 88.6918Z" fill="white"/>
  <path d="M109.998 88.6918L51.4098 103.826C49.7166 104.262 47.9204 104.005 46.4154 103.113C44.9103 102.222 43.8193 100.767 43.3817 99.0687L31.1038 51.2037C30.6699 49.5045 30.9255 47.7021 31.8143 46.1917C32.7031 44.6814 34.1526 43.5865 35.8449 43.1473L94.433 28.0126C96.1262 27.5773 97.9224 27.8337 99.4274 28.7256C100.932 29.6176 102.024 31.0722 102.461 32.7704L114.739 80.6354C115.173 82.3346 114.917 84.137 114.029 85.6474C113.14 87.1577 111.69 88.2526 109.998 88.6918ZM36.0382 43.9011C34.5451 44.2886 33.2661 45.2547 32.4818 46.5873C31.6976 47.92 31.4721 49.5104 31.8549 51.0097L44.1328 98.8746C44.519 100.373 45.4816 101.657 46.8096 102.444C48.1376 103.231 49.7224 103.457 51.2164 103.073L109.805 87.938C111.298 87.5505 112.577 86.5844 113.361 85.2518C114.145 83.9191 114.371 82.3287 113.988 80.8294L101.71 32.9645C101.324 31.4661 100.361 30.1826 99.0332 29.3955C97.7052 28.6085 96.1204 28.3823 94.6264 28.7664L36.0382 43.9011Z" fill="#E6E6E6"/>
  <path d="M91.4608 44.1067L61.8921 51.745C61.6336 51.8174 61.3574 51.7886 61.1192 51.6645C60.881 51.5403 60.6987 51.33 60.6091 51.0761C60.5674 50.9435 60.553 50.8037 60.5669 50.6654C60.5808 50.527 60.6227 50.3929 60.6899 50.2713C60.7571 50.1497 60.8484 50.0431 60.958 49.9581C61.0676 49.873 61.1934 49.8113 61.3276 49.7766L91.4267 42.0013C92.6426 42.6195 92.323 43.8839 91.4608 44.1067Z" fill="#F2F2F2"/>
  <path d="M92.7959 49.3115L63.2272 56.9498C62.9687 57.0222 62.6924 56.9934 62.4542 56.8693C62.2161 56.7451 62.0337 56.5349 61.9441 56.281C61.9024 56.1484 61.8881 56.0086 61.902 55.8702C61.9159 55.7318 61.9577 55.5978 62.025 55.4762C62.0922 55.3545 62.1834 55.248 62.2931 55.1629C62.4027 55.0778 62.5285 55.0161 62.6627 54.9814L92.7618 47.2061C93.9777 47.8244 93.658 49.0888 92.7959 49.3115Z" fill="#F2F2F2"/>
  <path d="M57.5953 61.5645L48.5712 63.8956C48.2765 63.9714 47.9638 63.9268 47.7019 63.7716C47.4399 63.6163 47.25 63.3631 47.1739 63.0675L44.4326 52.3808C44.357 52.085 44.4015 51.7713 44.5562 51.5084C44.7109 51.2455 44.9633 51.0549 45.2578 50.9785L54.2819 48.6473C54.5766 48.5716 54.8892 48.6163 55.1512 48.7716C55.4131 48.9268 55.603 49.1799 55.6793 49.4755L58.4205 60.1622C58.4961 60.458 58.4516 60.7717 58.2969 61.0346C58.1422 61.2975 57.8899 61.4881 57.5953 61.5645Z" fill="#E6E6E6"/>
  <path d="M95.4435 59.9907L50.3163 71.6481C50.0578 71.7205 49.7815 71.6917 49.5434 71.5676C49.3052 71.4434 49.1229 71.2331 49.0333 70.9793C48.9916 70.8466 48.9772 70.7069 48.9911 70.5685C49.005 70.4301 49.0468 70.2961 49.1141 70.1744C49.1813 70.0528 49.2725 69.9463 49.3822 69.8612C49.4918 69.7761 49.6176 69.7144 49.7518 69.6797L95.4098 57.8852C96.6256 58.5034 96.3057 59.7679 95.4435 59.9907Z" fill="#F2F2F2"/>
  <path d="M96.779 65.197L51.6518 76.8544C51.3933 76.9268 51.117 76.8981 50.8788 76.7739C50.6406 76.6498 50.4583 76.4395 50.3687 76.1856C50.327 76.053 50.3127 75.9132 50.3266 75.7748C50.3404 75.6365 50.3823 75.5024 50.4495 75.3808C50.5168 75.2592 50.608 75.1526 50.7176 75.0675C50.8273 74.9825 50.953 74.9207 51.0873 74.8861L96.7453 63.0915C97.9611 63.7098 97.6412 64.9743 96.779 65.197Z" fill="#F2F2F2"/>
  <path d="M98.1136 70.4L52.9864 82.0574C52.7279 82.1298 52.4516 82.101 52.2134 81.9769C51.9752 81.8527 51.7929 81.6424 51.7033 81.3886C51.6616 81.2559 51.6473 81.1162 51.6611 80.9778C51.675 80.8394 51.7169 80.7053 51.7841 80.5837C51.8514 80.4621 51.9426 80.3555 52.0522 80.2705C52.1619 80.1854 52.2876 80.1237 52.4219 80.089L98.0798 68.2945C99.2957 68.9127 98.9758 70.1772 98.1136 70.4Z" fill="#F2F2F2"/>
  <path d="M99.449 75.6059L54.3218 87.2634C54.0633 87.3358 53.787 87.307 53.5489 87.1828C53.3107 87.0587 53.1284 86.8484 53.0388 86.5945C52.997 86.4619 52.9827 86.3222 52.9966 86.1838C53.0105 86.0454 53.0523 85.9113 53.1196 85.7897C53.1868 85.6681 53.278 85.5615 53.3877 85.4765C53.4973 85.3914 53.6231 85.3297 53.7573 85.295L99.4153 73.5005C100.631 74.1187 100.311 75.3832 99.449 75.6059Z" fill="#F2F2F2"/>
  <path d="M100.784 80.8093L55.6565 92.4667C55.398 92.5391 55.1217 92.5103 54.8836 92.3862C54.6454 92.262 54.4631 92.0518 54.3735 91.7979C54.3318 91.6652 54.3174 91.5255 54.3313 91.3871C54.3452 91.2487 54.3871 91.1147 54.4543 90.9931C54.5215 90.8715 54.6127 90.7649 54.7224 90.6798C54.832 90.5947 54.9578 90.533 55.092 90.4983L100.75 78.7038C101.966 79.322 101.646 80.5865 100.784 80.8093Z" fill="#F2F2F2"/>
  <path d="M53.1251 128.695C52.961 128.738 52.7876 128.726 52.631 128.661L52.6213 128.657L50.5693 127.784C50.474 127.743 50.3877 127.685 50.3151 127.611C50.2426 127.537 50.1853 127.449 50.1466 127.353C50.1078 127.257 50.0883 127.154 50.0893 127.05C50.0902 126.946 50.1115 126.843 50.152 126.748C50.1924 126.652 50.2513 126.566 50.3251 126.493C50.3989 126.421 50.4863 126.363 50.5822 126.324C50.6782 126.286 50.7808 126.266 50.8842 126.267C50.9876 126.269 51.0898 126.29 51.1849 126.331L52.5145 126.898L54.2569 122.785C54.2973 122.69 54.3561 122.603 54.4298 122.531C54.5035 122.458 54.5907 122.401 54.6865 122.362C54.7822 122.323 54.8847 122.304 54.9879 122.305C55.0912 122.306 55.1933 122.327 55.2883 122.368L55.2781 122.395L55.289 122.368C55.4808 122.45 55.6323 122.605 55.7103 122.799C55.7882 122.993 55.7863 123.21 55.7048 123.403L53.6549 128.239C53.6074 128.351 53.5349 128.45 53.4431 128.529C53.3513 128.608 53.2426 128.664 53.1255 128.694L53.1251 128.695Z" fill="white"/>
  <path d="M179.352 180.841H79.2972C75.9042 180.837 72.6513 179.483 70.2521 177.075C67.8529 174.668 66.5033 171.403 66.4995 167.998V50.0782C66.5033 46.6732 67.8529 43.4089 70.2521 41.0012C72.6513 38.5935 75.9042 37.2392 79.2972 37.2354H172.382L192.149 53.0472V167.998C192.146 171.403 190.796 174.668 188.397 177.075C185.998 179.483 182.745 180.837 179.352 180.841Z" fill="#E6E6E6"/>
  <path d="M79.2972 40.9326C76.881 40.9353 74.5645 41.8997 72.856 43.6143C71.1475 45.3288 70.1864 47.6535 70.1837 50.0782V167.998C70.1864 170.423 71.1475 172.748 72.856 174.462C74.5645 176.177 76.881 177.141 79.2972 177.144H179.352C181.768 177.141 184.085 176.177 185.793 174.462C187.502 172.748 188.463 170.423 188.465 167.998V54.8283L171.093 40.9326H79.2972Z" fill="white"/>
  <path d="M159.891 75.2206H114.338C113.772 75.2206 113.23 74.9953 112.831 74.5942C112.431 74.1931 112.207 73.6491 112.207 73.0819C112.207 72.5147 112.431 71.9707 112.831 71.5697C113.23 71.1686 113.772 70.9433 114.338 70.9433H159.891C160.456 70.9433 160.998 71.1686 161.398 71.5697C161.798 71.9707 162.022 72.5147 162.022 73.0819C162.022 73.6491 161.798 74.1931 161.398 74.5942C160.998 74.9953 160.456 75.2206 159.891 75.2206Z" fill="#cccccc"/>
  <path d="M168.682 82.4386H114.338C113.773 82.4379 113.232 82.2122 112.833 81.8112C112.434 81.4102 112.209 80.8667 112.209 80.2999C112.209 79.7332 112.434 79.1897 112.833 78.7887C113.232 78.3877 113.773 78.1621 114.338 78.1613H168.682C168.962 78.1609 169.24 78.2159 169.499 78.3233C169.758 78.4306 169.993 78.588 170.191 78.7867C170.389 78.9853 170.546 79.2212 170.654 79.4808C170.761 79.7405 170.816 80.0189 170.816 80.2999C170.816 80.581 170.761 80.8594 170.654 81.1191C170.546 81.3787 170.389 81.6146 170.191 81.8132C169.993 82.0119 169.758 82.1694 169.499 82.2767C169.24 82.384 168.962 82.439 168.682 82.4386Z" fill="#cccccc"/>
  <path d="M159.892 103.289H114.34C113.774 103.289 113.232 103.515 112.833 103.916C112.433 104.317 112.208 104.861 112.208 105.428C112.208 105.995 112.433 106.539 112.833 106.94C113.232 107.341 113.774 107.566 114.34 107.566H159.892C160.457 107.566 160.999 107.341 161.398 106.94C161.798 106.539 162.023 105.995 162.023 105.428C162.023 104.861 161.798 104.317 161.398 103.916C160.999 103.515 160.457 103.289 159.892 103.289Z" fill="#CCCCCC"/>
  <path d="M168.683 110.509H114.34C113.774 110.509 113.232 110.734 112.833 111.135C112.433 111.536 112.208 112.08 112.208 112.647C112.208 113.214 112.433 113.758 112.833 114.159C113.232 114.56 113.774 114.786 114.34 114.786H168.683C169.248 114.786 169.79 114.56 170.19 114.159C170.59 113.758 170.814 113.214 170.814 112.647C170.814 112.08 170.59 111.536 170.19 111.135C169.79 110.734 169.248 110.509 168.683 110.509Z" fill="#CCCCCC"/>
  <path d="M159.891 139.915H114.338C113.772 139.915 113.23 139.69 112.831 139.289C112.431 138.888 112.207 138.344 112.207 137.777C112.207 137.21 112.431 136.666 112.831 136.264C113.23 135.863 113.772 135.638 114.338 135.638H159.891C160.456 135.638 160.998 135.863 161.398 136.264C161.798 136.666 162.022 137.21 162.022 137.777C162.022 138.344 161.798 138.888 161.398 139.289C160.998 139.69 160.456 139.915 159.891 139.915Z" fill="#CCCCCC"/>
  <path d="M168.682 147.133H114.338C113.773 147.133 113.232 146.907 112.833 146.506C112.434 146.105 112.209 145.561 112.209 144.995C112.209 144.428 112.434 143.884 112.833 143.484C113.232 143.083 113.773 142.857 114.338 142.856H168.682C168.962 142.856 169.24 142.911 169.499 143.018C169.758 143.125 169.993 143.283 170.191 143.481C170.389 143.68 170.546 143.916 170.654 144.176C170.761 144.435 170.816 144.714 170.816 144.995C170.816 145.276 170.761 145.554 170.654 145.814C170.546 146.074 170.389 146.309 170.191 146.508C169.993 146.707 169.758 146.864 169.499 146.971C169.24 147.079 168.962 147.134 168.682 147.133Z" fill="#CCCCCC"/>
  <path d="M95.3682 84.25C99.5282 84.25 102.901 80.8657 102.901 76.691C102.901 72.5162 99.5282 69.132 95.3682 69.132C91.2081 69.132 87.8357 72.5162 87.8357 76.691C87.8357 80.8657 91.2081 84.25 95.3682 84.25Z" fill="#cccccc"/>
  <path d="M94.6218 79.5745C94.4523 79.5748 94.2873 79.5198 94.1518 79.4177L94.1433 79.4114L92.3731 78.0525C92.2909 77.9895 92.2218 77.9109 92.1699 77.8211C92.118 77.7313 92.0843 77.6321 92.0706 77.5291C92.057 77.4262 92.0636 77.3216 92.0903 77.2213C92.117 77.121 92.1631 77.027 92.2261 76.9446C92.289 76.8622 92.3675 76.7931 92.4571 76.7412C92.5467 76.6893 92.6457 76.6556 92.7482 76.6422C92.8508 76.6287 92.955 76.6356 93.0549 76.6626C93.1548 76.6896 93.2484 76.7361 93.3304 76.7994L94.477 77.6818L97.1865 74.1345C97.2493 74.0523 97.3277 73.9832 97.4171 73.9314C97.5065 73.8795 97.6052 73.8459 97.7076 73.8323C97.81 73.8187 97.914 73.8255 98.0138 73.8523C98.1135 73.8791 98.207 73.9253 98.289 73.9884L98.2724 74.012L98.2897 73.9885C98.455 74.1161 98.5632 74.3042 98.5904 74.5116C98.6177 74.7191 98.5619 74.929 98.4351 75.0951L95.2482 79.2657C95.1744 79.3618 95.0796 79.4395 94.9711 79.4929C94.8626 79.5463 94.7433 79.5739 94.6224 79.5736L94.6218 79.5745Z" fill="white"/>
  <path d="M103.675 109.038C103.675 110.03 103.481 111.014 103.102 111.931C102.724 112.848 102.169 113.682 101.47 114.384C100.771 115.086 99.9403 115.643 99.0264 116.023C98.1124 116.403 97.1329 116.599 96.1435 116.599C96.0788 116.601 96.0141 116.598 95.9496 116.591C94.4686 116.553 93.0316 116.078 91.8185 115.224C90.6055 114.371 89.6702 113.177 89.1297 111.793C88.5893 110.408 88.4677 108.895 88.7801 107.441C89.0926 105.988 89.8252 104.659 90.8863 103.622C91.9474 102.584 93.2899 101.884 94.7457 101.608C96.2016 101.332 97.7062 101.493 99.0712 102.071C100.436 102.65 101.601 103.619 102.42 104.858C103.239 106.097 103.675 107.551 103.675 109.038Z" fill="#CCCCCC"/>
  <path d="M95.3682 148.945C99.5282 148.945 102.901 145.56 102.901 141.386C102.901 137.211 99.5282 133.827 95.3682 133.827C91.2081 133.827 87.8357 137.211 87.8357 141.386C87.8357 145.56 91.2081 148.945 95.3682 148.945Z" fill="#CCCCCC"/>
  <path d="M191.765 53.556H176.28C175.149 53.556 174.065 53.1054 173.266 52.3032C172.467 51.5011 172.018 50.4131 172.018 49.2787V37.8015C172.018 37.7513 172.032 37.702 172.058 37.6595C172.085 37.6169 172.123 37.5827 172.168 37.5608C172.213 37.539 172.263 37.5303 172.313 37.5358C172.363 37.5413 172.41 37.5608 172.449 37.592L191.93 53.0792C191.973 53.1136 192.005 53.1608 192.021 53.2141C192.036 53.2674 192.034 53.3242 192.016 53.3766C191.998 53.429 191.964 53.4745 191.919 53.5066C191.874 53.5388 191.82 53.556 191.765 53.556Z" fill="#CCCCCC"/>
  <path d="M103.675 109.038C103.675 110.03 103.481 111.013 103.102 111.931C102.724 112.848 102.169 113.682 101.47 114.384C100.771 115.086 99.9403 115.643 99.0264 116.023C98.1124 116.403 97.1329 116.599 96.1435 116.599C96.0788 116.601 96.0141 116.598 95.9496 116.591C94.9765 114.156 94.6014 111.521 94.8558 108.909C95.1103 106.297 95.9869 103.785 97.4117 101.585C99.1639 101.886 100.753 102.8 101.9 104.163C103.046 105.527 103.674 107.254 103.675 109.038Z" fill="#cccccc"/>
  <path d="M112.207 105.43C112.208 104.863 112.433 104.319 112.832 103.918C113.232 103.516 113.774 103.29 114.339 103.289H125.691C126.354 104.643 126.825 106.082 127.091 107.566H114.339C113.775 107.566 113.233 107.341 112.833 106.941C112.433 106.54 112.208 105.997 112.207 105.43Z" fill="#cccccc"/>
  <path d="M127.354 110.509C127.355 111.953 127.165 113.391 126.788 114.786H114.34C113.774 114.786 113.232 114.56 112.833 114.159C112.433 113.758 112.208 113.214 112.208 112.647C112.208 112.08 112.433 111.536 112.833 111.135C113.232 110.734 113.774 110.509 114.34 110.509H127.354Z" fill="#cccccc"/>
  <path d="M155.44 136.886C155.119 137.415 154.601 137.794 154.001 137.939C153.402 138.085 152.769 137.986 152.242 137.664L125.093 121.046C124.833 120.886 124.606 120.676 124.425 120.429C124.245 120.181 124.116 119.9 124.044 119.602C123.972 119.304 123.959 118.995 124.006 118.692C124.053 118.389 124.16 118.098 124.319 117.836C124.478 117.574 124.687 117.347 124.934 117.166C125.18 116.985 125.46 116.855 125.757 116.783C126.054 116.711 126.362 116.698 126.664 116.745C126.966 116.792 127.256 116.899 127.517 117.059L154.665 133.677C155.192 133.999 155.57 134.518 155.715 135.12C155.86 135.722 155.761 136.357 155.44 136.886Z" fill="#3F3D56"/>
  <path d="M128.292 120.268C126.374 123.422 123.568 125.935 120.228 127.489C116.888 129.043 113.163 129.567 109.526 128.997C105.888 128.427 102.501 126.786 99.7924 124.284C97.0837 121.782 95.1753 118.53 94.3084 114.939C93.4415 111.348 93.6552 107.58 94.9223 104.111C96.1895 100.642 98.4532 97.6283 101.427 95.4505C104.401 93.2726 107.952 92.0287 111.631 91.876C115.309 91.7234 118.95 92.6688 122.093 94.5927C126.304 97.1765 129.321 101.331 130.483 106.144C131.645 110.958 130.857 116.037 128.292 120.268ZM100.481 103.245C99.0431 105.61 98.3366 108.351 98.4507 111.12C98.5648 113.888 99.4944 116.561 101.122 118.799C102.75 121.037 105.002 122.741 107.595 123.695C110.187 124.649 113.003 124.809 115.687 124.157C118.371 123.505 120.801 122.068 122.671 120.029C124.541 117.991 125.767 115.441 126.194 112.704C126.62 109.966 126.228 107.163 125.066 104.649C123.905 102.135 122.027 100.023 119.67 98.5797C116.508 96.649 112.712 96.0559 109.114 96.9305C105.517 97.805 102.412 100.076 100.481 103.245Z" fill="#3F3D56"/>
</svg>