<svg width="14" height="14" viewBox="0 0 14 14" fill="none" xmlns="http://www.w3.org/2000/svg">
<g id="line-spacing 1">
<path id="Vector" fill-rule="evenodd" clip-rule="evenodd" d="M12.2487 1.1665C12.5709 1.1665 12.832 1.42767 12.832 1.74984L12.832 12.2498C12.832 12.572 12.5709 12.8332 12.2487 12.8332C11.9265 12.8332 11.6654 12.572 11.6654 12.2498L11.6654 1.74984C11.6654 1.42767 11.9265 1.1665 12.2487 1.1665ZM10.7049 6.3811C11.0466 6.72281 11.0466 7.27686 10.7049 7.61858L9.16118 9.16231C8.93337 9.3901 8.56403 9.3901 8.33622 9.16231C8.10843 8.93452 8.10843 8.56515 8.33622 8.33736L9.09041 7.58317L6.9987 7.58317C6.67652 7.58317 6.41536 7.32201 6.41536 6.99984C6.41536 6.67766 6.67652 6.4165 6.9987 6.4165L9.09041 6.4165L8.33622 5.66232C8.10843 5.43451 8.10843 5.06517 8.33622 4.83736C8.56403 4.60955 8.93337 4.60955 9.16118 4.83736L10.7049 6.3811ZM4.66536 1.1665C4.98754 1.1665 5.2487 1.42767 5.2487 1.74984L5.2487 12.2498C5.2487 12.572 4.98754 12.8332 4.66536 12.8332C4.34319 12.8332 4.08203 12.572 4.08203 12.2498L4.08203 1.74984C4.08203 1.42767 4.34319 1.1665 4.66536 1.1665ZM1.7487 1.1665C2.07087 1.1665 2.33203 1.42767 2.33203 1.74984L2.33203 12.2498C2.33203 12.572 2.07087 12.8332 1.7487 12.8332C1.42652 12.8332 1.16536 12.572 1.16536 12.2498L1.16536 1.74984C1.16536 1.42767 1.42652 1.1665 1.7487 1.1665Z" fill="#465BEC"/>
</g>
</svg>
